<svg width="24" height="24" viewBox="0 0 24 24" fill="none" xmlns="http://www.w3.org/2000/svg">
<path d="M6.38576 10.068C6.17301 10.6899 6.06488 11.3427 6.06576 12C6.06576 12.734 6.19776 13.437 6.44176 14.086C6.74587 14.8972 7.22356 15.6321 7.8414 16.2393C8.45924 16.8466 9.20231 17.3115 10.0186 17.6015C10.8349 17.8916 11.7047 17.9998 12.5672 17.9185C13.4297 17.8372 14.264 17.5684 15.0118 17.131H15.0128C16.1908 16.4404 17.0959 15.3661 17.5768 14.088H12.2298V10.132H21.8348C22.0832 11.4405 22.0682 12.7854 21.7908 14.088C21.31 16.3399 20.0666 18.3568 18.2708 19.798C16.497 21.2264 14.2872 22.0035 12.0098 22C10.2927 22.001 8.60439 21.5597 7.1074 20.7187C5.61041 19.8778 4.35522 18.6655 3.46277 17.1986C2.57033 15.7317 2.0707 14.0597 2.01202 12.3437C1.95334 10.6276 2.3376 8.92542 3.12776 7.401C3.97073 5.77291 5.24515 4.40796 6.81164 3.4554C8.37813 2.50284 10.1764 1.99936 12.0098 2C14.4358 2 16.6608 2.864 18.3928 4.302L15.1528 6.954C14.3938 6.48164 13.5381 6.18643 12.6493 6.09034C11.7605 5.99424 10.8615 6.09972 10.0191 6.39894C9.17666 6.69816 8.41254 7.18342 7.78351 7.81864C7.15447 8.45386 6.67672 9.2227 6.38576 10.068Z" fill="#21272A"/>
</svg>
